<?xml version="1.0" encoding="utf-8"?>
<!-- Generator: Adobe Illustrator 16.0.0, SVG Export Plug-In . SVG Version: 6.00 Build 0)  -->
<!DOCTYPE svg PUBLIC "-//W3C//DTD SVG 1.1//EN" "http://www.w3.org/Graphics/SVG/1.1/DTD/svg11.dtd">
<svg version="1.1" id="Layer_1" xmlns="http://www.w3.org/2000/svg" xmlns:xlink="http://www.w3.org/1999/xlink" x="0px" y="0px"
	 width="162px" height="23.509px" viewBox="0 0 162 23.509" enable-background="new 0 0 162 23.509" xml:space="preserve">
<g id="hand_pointing_left">
	<g>
		<path fill="#0F0F0F" d="M0.097,7.725c0.259,0.807,1.123,1.77,3.764,1.77c1.721,0,5.336-0.124,10.755-0.368
			c-0.946,0.706-1.602,1.33-1.953,1.866c-0.504,0.769,0.14,1.966,2.147,3.961c-0.482,0.417-0.939,1.027-1.133,1.675
			c-0.205,0.686-0.099,1.32,0.308,1.838c0.217,0.274,0.645,0.819,6.27,1.208c1.696,1.352,3.155,2.445,3.642,2.809l0.109,0.082
			c0.233,0.173,0.493,0.264,0.773,0.264c0.859,0,1.606-0.845,1.985-1.569c0.036-0.069,0.068-0.137,0.097-0.202
			c0.733,0.462,1.43,0.862,1.978,0.918c0.035,0.003,0.069,0.006,0.105,0.006c0.84,0,1.775-0.98,2.271-1.989
			c0.416-0.004,0.865-0.009,1.292-0.009c0.803,0,1.373,0.013,1.694,0.037c0.306,0.024,0.817,0.139,1.41,0.271
			c1.068,0.24,2.398,0.536,3.554,0.536c0.445,0,0.825-0.042,1.163-0.13c2.023-0.53,3.223-0.992,3.531-1.116l0.234-0.019
			c0.519,1.015,2.468,3.945,7.688,3.945c1.452,0,3.059-0.235,4.777-0.695l0.077-0.027c1.408-0.628,3.457-6.235,3.362-10.249
			c-0.106-4.455-1.879-8.639-3.007-9.452c-1.461-1.053-3.201-1.113-5.044-1.177c-0.361-0.013-0.734-0.026-1.102-0.047
			c-0.113-0.007-0.229-0.01-0.348-0.01c-2.227,0-5.854,1.246-6.515,4.552c-0.091-0.002-0.141-0.008-0.165-0.011
			c-0.348-0.067-2.109-1.074-3.661-1.963C35.917,2.006,32.284,0,30.727,0c-1.329,0-8.926,1.258-15.593,2.435
			c-4.138,0.731-13.817,2.47-14.336,2.84C0.292,5.634-0.218,6.742,0.097,7.725z M55.962,21.894
			c-0.462,0.116-0.914,0.217-1.357,0.298l3.473-4.141c-0.27,0.854-0.57,1.619-0.858,2.236L55.962,21.894z M53.571,22.352
			c-0.372,0.047-0.737,0.079-1.092,0.1l6.404-8.165c-0.076,0.736-0.205,1.466-0.367,2.171L53.571,22.352z M46.414,20.644
			l-0.073,0.073c-0.093-0.082-0.183-0.162-0.266-0.243l0.055-0.054C46.217,20.497,46.311,20.573,46.414,20.644z M47.621,21.154
			l-0.27,0.27c-0.162-0.092-0.314-0.188-0.456-0.284l0.154-0.155C47.225,21.055,47.416,21.111,47.621,21.154z M49.307,21.153
			l-0.668,0.844c-0.225-0.077-0.437-0.159-0.637-0.246l0.515-0.517c0.044,0,0.088-0.001,0.134-0.003
			C48.875,21.218,49.096,21.193,49.307,21.153z M45.25,19.49l0.144-0.013c0.07,0.14,0.159,0.287,0.267,0.434l-0.059,0.058
			C45.461,19.796,45.346,19.634,45.25,19.49z M52.384,18.818l0.008-0.001l0.101-0.198c0.063-0.121,0.124-0.245,0.182-0.373
			c0.057-0.128,0.109-0.257,0.161-0.389c0.003-0.006,0.005-0.013,0.008-0.02c0.044-0.115,0.086-0.233,0.126-0.351
			c0.002-0.007,0.005-0.015,0.007-0.021c0.416-1.263,0.58-2.702,0.544-4.137c0-0.018-0.001-0.038-0.002-0.057
			c-0.003-0.117-0.008-0.237-0.013-0.354c-0.003-0.046-0.006-0.088-0.009-0.135c-0.005-0.09-0.012-0.18-0.018-0.27
			c-0.005-0.073-0.013-0.145-0.018-0.217c-0.005-0.061-0.012-0.121-0.017-0.182c-0.01-0.1-0.021-0.2-0.033-0.299
			c-0.004-0.031-0.007-0.061-0.011-0.091c-0.015-0.127-0.033-0.252-0.052-0.378c0-0.001,0-0.003-0.001-0.005
			c-0.265-1.778-0.814-3.423-1.552-4.565c-0.01-0.014-0.018-0.025-0.027-0.038c-0.047-0.072-0.095-0.143-0.144-0.211
			c-0.059-0.082-0.119-0.161-0.18-0.236c-0.142-0.174-0.286-0.335-0.431-0.487L50.92,5.702l-0.006,0.002
			c-0.874-0.866-1.821-1.307-2.82-1.307c-1.134,0-2.121,0.594-2.769,1.241c0.992-1.98,3.531-2.75,5.17-2.75
			c0.099,0,0.195,0.002,0.288,0.008c0.38,0.021,0.758,0.035,1.126,0.048c1.681,0.059,3.27,0.113,4.475,0.982
			c0.621,0.447,2.47,4.111,2.578,8.634c0.003,0.169,0.002,0.339,0,0.51l-7.375,9.398c-0.277-0.005-0.543-0.017-0.8-0.039
			l4.788-6.224l-0.548-0.421l-5.036,6.546c-0.22-0.038-0.43-0.08-0.632-0.127l1.173-1.486C51.277,20.312,51.9,19.673,52.384,18.818z
			 M27.244,20.075c-0.057-0.037-0.108-0.069-0.156-0.099c1.042,0.027,1.832,0.04,2.19,0.044c0.011,0,0.024,0,0.035,0
			c0.007,0,0.011,0,0.016,0c0.097,0.001,0.153,0.002,0.158,0.002l0.018-0.001c0.005,0,0.201-0.003,0.506-0.01
			c-0.404,0.593-0.889,0.934-1.069,0.934C28.547,20.907,27.666,20.345,27.244,20.075z M22.064,19.785
			c0.068,0.005,0.137,0.01,0.208,0.013c1.311,0.068,2.61,0.116,3.739,0.149l-0.021,0.038c-0.049,0.091-0.105,0.263-0.011,0.473
			c-0.075,0.362-0.732,1.335-1.202,1.335c-0.036,0-0.085-0.006-0.152-0.057l-0.11-0.083C24.149,21.38,23.225,20.691,22.064,19.785z
			 M16.569,9.038c1.292-0.062,2.534-0.12,3.644-0.174l3.375,3.375c-0.399,0.236-0.719,0.42-0.887,0.504
			c-0.014,0.007-0.032,0.015-0.051,0.022l-2.857-2.856l-0.487,0.488l2.591,2.591c-0.333,0.087-0.741,0.185-1.177,0.288l-2.383-2.384
			l-0.488,0.487l2.079,2.08c-0.556,0.127-1.119,0.252-1.605,0.362c-0.176,0.037-0.344,0.076-0.504,0.112
			c-0.033,0.008-0.063,0.014-0.095,0.022c-0.038,0.008-0.077,0.017-0.114,0.026c-0.048,0.01-0.094,0.02-0.142,0.032
			c-0.021,0.004-0.042,0.009-0.064,0.014c-0.053,0.013-0.106,0.022-0.156,0.036c-0.013,0.003-0.026,0.006-0.04,0.009
			c-0.055,0.013-0.107,0.025-0.16,0.037c-0.005,0.001-0.013,0.002-0.018,0.003c-0.227,0.053-0.432,0.1-0.61,0.142
			c-0.009,0.002-0.018,0.005-0.027,0.008c-0.033,0.008-0.063,0.015-0.094,0.022c-0.016,0.004-0.033,0.008-0.048,0.011
			c-0.029,0.008-0.056,0.013-0.083,0.021c-0.016,0.004-0.032,0.009-0.048,0.013c-0.023,0.006-0.048,0.012-0.071,0.017
			c-0.015,0.006-0.032,0.009-0.047,0.013c-0.022,0.005-0.044,0.011-0.063,0.016c-0.015,0.004-0.029,0.007-0.043,0.012
			c-0.019,0.004-0.039,0.01-0.056,0.013c-0.015,0.005-0.028,0.009-0.042,0.013c-0.015,0.004-0.031,0.008-0.045,0.012
			c-0.001,0-0.003,0.001-0.003,0.001c-2.224-2.172-2.22-2.802-2.211-2.873C13.952,10.923,15.026,10.033,16.569,9.038z M26.842,9.898
			l-1.193-1.193C26.331,8.913,26.674,9.471,26.842,9.898z M26.449,10.48c-0.225,0.142-0.475,0.299-0.738,0.461l-2.241-2.24
			c0.517-0.027,0.907-0.047,1.14-0.06L26.449,10.48z M25.108,11.315c-0.308,0.189-0.617,0.379-0.908,0.556l-3.054-3.054
			c0.504-0.025,0.972-0.048,1.394-0.069L25.108,11.315z M1.372,6.14c1.415-0.478,26.664-5.105,29.355-5.105
			c1.408,0,5.922,2.583,8.911,4.292c2.37,1.358,3.533,2.013,4.019,2.087c0.244,0.039,0.663,0.034,1.319-0.011l0.451,0.01
			l0.016-0.045c1.463-0.12,3.495-0.367,5.077-0.572c0.042,0.048,0.081,0.096,0.119,0.144C52.205,8.87,53,13.59,52.077,16.845V15.82
			h-0.689v2.047l-1.037,0.092v-3.014h-0.69v3.076l-1.036,0.093v-4.044h-0.69v4.107l-1.036,0.091v-5.303h-0.69v5.366l-1.036,0.092
			v-6.054h-0.69v6.117l-0.875,0.079l-0.075,0.032c-0.001,0.001-0.033,0.014-0.087,0.035v-6.262h-0.689v6.515
			c-0.275,0.095-0.621,0.212-1.036,0.339v-6.083h-0.689v6.29c-0.298,0.085-0.618,0.173-0.966,0.264
			c-0.023,0.006-0.047,0.011-0.069,0.014v-5.973h-0.691v6.053c-0.046,0.002-0.091,0.003-0.139,0.003
			c-0.302,0-0.625-0.026-0.954-0.064v-5.034h-0.69v4.933c-0.351-0.06-0.7-0.131-1.037-0.203v-3.946h-0.69v3.795
			c-0.384-0.086-0.736-0.164-1.036-0.218v-3.578h-0.69v3.5c-0.26-0.012-0.606-0.021-1.036-0.024v-2.958h-0.69v2.955
			c-0.233,0-0.468,0.002-0.7,0.004l0.001-0.003l-0.337,0.006v-2.616h-0.691v2.626c-0.23,0.003-0.436,0.007-0.609,0.011
			c-0.024,0.001-0.047,0.001-0.069,0.001c-0.004,0.001-0.008,0.001-0.013,0.001c-0.151,0.002-0.27,0.005-0.345,0.006v-2.3h-0.691
			v2.293c-0.27-0.005-0.62-0.012-1.036-0.021v-1.928h-0.689v1.912c-0.323-0.008-0.669-0.018-1.036-0.028v-1.798H25.44v1.775
			c-0.335-0.011-0.683-0.022-1.037-0.037V17.29h-0.689v1.538c-0.341-0.014-0.688-0.032-1.036-0.047v-1.059h-0.69v1.023
			c-0.347-0.02-0.692-0.04-1.036-0.062v-1.223h-0.69v1.177l-0.333-0.022c-0.241-0.017-0.474-0.036-0.703-0.055v-0.84h-0.689V18.5
			c-0.367-0.036-0.712-0.07-1.037-0.107v-1.019h-0.689v0.933c-0.397-0.053-0.743-0.11-1.036-0.167v-0.55h-0.691v0.37
			c-0.131-0.046-0.232-0.094-0.29-0.142c-0.188-0.246-0.228-0.538-0.123-0.891c0.203-0.672,0.835-1.27,1.185-1.444
			c0.014-0.008,0.026-0.013,0.038-0.017c0.016-0.007,0.032-0.013,0.046-0.018c0.287-0.097,1.416-0.35,2.612-0.616
			c2.505-0.561,4.18-0.943,4.618-1.163c0.74-0.37,3.887-2.328,4.63-2.822l0.23-0.156v-0.276c0-0.169-0.052-0.454-0.173-0.779V6.962
			h-0.689v1.526c-0.269-0.294-0.609-0.551-1.036-0.713V6.27h-0.689v1.335c-0.116-0.013-0.237-0.021-0.363-0.021
			c-0.091,0-0.185,0.003-0.281,0.011c-0.005,0-0.142,0.007-0.392,0.02V5.581h-0.69v2.07c-0.295,0.015-0.643,0.033-1.036,0.053V5.233
			h-0.69v2.504c-0.035,0.001-0.068,0.003-0.103,0.005c-0.042,0.002-0.085,0.005-0.127,0.007c-0.068,0.003-0.139,0.007-0.21,0.011
			c-0.038,0.001-0.077,0.003-0.117,0.006c-0.054,0.002-0.108,0.006-0.163,0.008c-0.069,0.003-0.141,0.007-0.211,0.011
			c-0.035,0.001-0.069,0.003-0.104,0.005V5.408h-0.69v2.416c-0.021,0.001-0.044,0.002-0.067,0.004
			c-0.055,0.003-0.11,0.005-0.166,0.008c-0.052,0.003-0.104,0.005-0.157,0.008c-0.094,0.005-0.19,0.01-0.286,0.013
			c-0.004,0-0.007,0-0.011,0c-0.116,0.006-0.231,0.012-0.349,0.017V5.926H18.54v1.981c-0.34,0.016-0.685,0.033-1.036,0.049V6.444
			h-0.692v1.545c-0.142,0.007-0.282,0.014-0.424,0.02l-0.139,0.007l0,0c-0.08,0.003-0.16,0.007-0.239,0.011
			c-0.079,0.003-0.157,0.007-0.235,0.011V6.875h-0.691v1.194c-0.352,0.016-0.696,0.032-1.035,0.047V6.875h-0.69v1.271
			c-0.353,0.014-0.699,0.031-1.035,0.045V7.48h-0.69v0.74c-0.357,0.015-0.7,0.028-1.036,0.042V7.393H9.906v0.896
			C9.548,8.301,9.201,8.315,8.871,8.327V7.306H8.18v1.047C7.818,8.366,7.472,8.378,7.145,8.387V7.306H6.454v1.102
			c-0.372,0.011-0.718,0.02-1.036,0.027V7.695H4.723V8.45C4.395,8.455,4.104,8.458,3.86,8.458c-1.568,0-2.554-0.37-2.775-1.042
			C0.913,6.89,1.214,6.297,1.372,6.14z"/>
	</g>
</g>
<g id="hand_pointing_right">
	<g>
		<path fill="#0F0F0F" d="M129.202,5.275c-0.519-0.37-10.198-2.109-14.338-2.84C108.198,1.257,100.6,0,99.271,0
			c-1.557,0-5.188,2.006-9.425,4.431c-1.552,0.889-3.313,1.896-3.661,1.962c-0.023,0.003-0.074,0.009-0.165,0.011
			c-0.661-3.307-4.289-4.552-6.516-4.552c-0.119,0-0.234,0.003-0.348,0.01c-0.368,0.021-0.741,0.033-1.102,0.046
			c-1.844,0.064-3.584,0.125-5.045,1.177c-1.128,0.813-2.902,4.997-3.007,9.452c-0.094,4.015,1.954,9.621,3.362,10.25l0.076,0.027
			c1.718,0.46,3.325,0.695,4.776,0.695c5.22,0,7.169-2.931,7.688-3.946l0.234,0.02c0.308,0.124,1.508,0.585,3.532,1.116
			c0.337,0.087,0.717,0.13,1.162,0.13c1.156,0,2.486-0.296,3.554-0.536c0.593-0.132,1.105-0.246,1.41-0.271
			c0.322-0.024,0.892-0.038,1.695-0.038c0.428,0,0.877,0.005,1.293,0.01c0.496,1.009,1.431,1.989,2.271,1.989
			c0.037,0,0.071-0.002,0.105-0.007c0.548-0.055,1.245-0.454,1.978-0.918c0.029,0.064,0.061,0.133,0.097,0.203
			c0.378,0.724,1.125,1.568,1.985,1.568c0.279,0,0.54-0.09,0.773-0.264l0.109-0.082c0.486-0.363,1.946-1.456,3.642-2.808
			c5.626-0.388,6.053-0.933,6.27-1.208c0.406-0.518,0.513-1.153,0.308-1.838c-0.193-0.648-0.651-1.258-1.133-1.675
			c2.007-1.995,2.652-3.193,2.147-3.961c-0.352-0.536-1.007-1.161-1.953-1.866c5.418,0.243,9.033,0.367,10.754,0.367
			c2.64,0,3.505-0.962,3.764-1.77C130.217,6.742,129.707,5.634,129.202,5.275z M72.778,20.288c-0.288-0.618-0.588-1.383-0.858-2.237
			l3.473,4.142c-0.442-0.082-0.896-0.182-1.356-0.298L72.778,20.288z M71.484,16.457c-0.163-0.704-0.292-1.436-0.368-2.171
			l6.404,8.165c-0.354-0.021-0.72-0.052-1.093-0.1L71.484,16.457z M83.87,20.419l0.055,0.054c-0.083,0.081-0.173,0.163-0.267,0.244
			l-0.073-0.073C83.688,20.573,83.782,20.497,83.87,20.419z M82.95,20.985l0.154,0.155c-0.142,0.095-0.295,0.191-0.456,0.283
			l-0.269-0.27C82.583,21.111,82.774,21.055,82.95,20.985z M81.348,21.23c0.044,0.002,0.089,0.003,0.133,0.003l0.516,0.517
			c-0.201,0.088-0.413,0.17-0.637,0.246l-0.668-0.843C80.903,21.193,81.124,21.218,81.348,21.23z M84.396,19.968l-0.06-0.058
			c0.109-0.146,0.197-0.293,0.267-0.433l0.144,0.013C84.653,19.634,84.537,19.797,84.396,19.968z M79.467,20.719l1.174,1.485
			c-0.202,0.048-0.412,0.09-0.632,0.127l-5.036-6.547l-0.548,0.421l4.788,6.224c-0.257,0.022-0.524,0.034-0.8,0.039l-7.375-9.398
			c-0.002-0.17-0.003-0.341,0-0.509c0.107-4.524,1.957-8.188,2.577-8.635c1.205-0.868,2.793-0.923,4.475-0.981
			c0.368-0.013,0.746-0.026,1.125-0.048c0.093-0.005,0.19-0.008,0.289-0.008c1.641,0,4.178,0.77,5.17,2.75
			c-0.648-0.646-1.635-1.24-2.769-1.24c-0.999,0-1.946,0.44-2.821,1.307l-0.005-0.002l-0.094,0.102
			c-0.146,0.152-0.289,0.313-0.431,0.486c-0.062,0.076-0.121,0.155-0.18,0.237c-0.049,0.068-0.097,0.139-0.144,0.211
			c-0.009,0.013-0.018,0.025-0.027,0.039c-0.738,1.141-1.287,2.787-1.552,4.565c-0.001,0.002-0.001,0.003-0.001,0.005
			c-0.019,0.126-0.037,0.25-0.052,0.378c-0.003,0.03-0.007,0.06-0.011,0.091c-0.012,0.099-0.022,0.199-0.033,0.298
			c-0.006,0.062-0.012,0.121-0.017,0.182c-0.006,0.072-0.013,0.144-0.018,0.217c-0.007,0.09-0.013,0.179-0.018,0.27
			c-0.002,0.045-0.006,0.089-0.009,0.135c-0.005,0.117-0.009,0.237-0.013,0.354c-0.001,0.018-0.001,0.038-0.002,0.056
			c-0.037,1.436,0.128,2.874,0.544,4.137c0.002,0.006,0.005,0.014,0.007,0.021c0.039,0.118,0.082,0.235,0.126,0.351
			c0.002,0.007,0.005,0.014,0.008,0.02c0.051,0.132,0.103,0.262,0.16,0.389c0.058,0.128,0.118,0.253,0.182,0.375l0.101,0.197
			l0.009,0.001C78.098,19.674,78.722,20.312,79.467,20.719z M101.057,20.946c-0.18,0-0.664-0.342-1.069-0.934
			c0.305,0.006,0.501,0.01,0.506,0.01l0.018,0.001c0.005,0,0.062-0.001,0.158-0.002c0.005,0,0.009,0,0.016,0
			c0.011,0,0.024,0,0.035,0c0.358-0.005,1.148-0.018,2.19-0.044c-0.048,0.03-0.099,0.062-0.156,0.099
			C102.333,20.345,101.453,20.907,101.057,20.946z M105.484,21.654l-0.109,0.083c-0.068,0.05-0.117,0.056-0.153,0.056
			c-0.471,0-1.128-0.973-1.202-1.334c0.093-0.21,0.038-0.382-0.011-0.474l-0.021-0.038c1.128-0.033,2.429-0.082,3.739-0.149
			c0.07-0.003,0.139-0.007,0.208-0.012C106.774,20.692,105.851,21.38,105.484,21.654z M116.465,11.551
			c0.01,0.07,0.013,0.701-2.212,2.873c0,0-0.002-0.001-0.003-0.001c-0.014-0.004-0.032-0.008-0.045-0.013
			c-0.014-0.003-0.027-0.007-0.042-0.013c-0.017-0.003-0.037-0.009-0.056-0.013c-0.014-0.005-0.028-0.008-0.043-0.013
			c-0.019-0.005-0.041-0.01-0.063-0.015c-0.016-0.005-0.032-0.007-0.047-0.013c-0.024-0.005-0.047-0.011-0.071-0.017
			c-0.016-0.003-0.033-0.009-0.048-0.013c-0.028-0.007-0.055-0.013-0.084-0.021c-0.014-0.003-0.031-0.007-0.047-0.012
			c-0.032-0.007-0.062-0.015-0.095-0.022c-0.01-0.003-0.018-0.005-0.027-0.008c-0.178-0.042-0.382-0.089-0.609-0.143
			c-0.006-0.001-0.013-0.001-0.018-0.003c-0.053-0.013-0.105-0.023-0.16-0.037c-0.013-0.002-0.027-0.006-0.04-0.01
			c-0.05-0.012-0.103-0.022-0.156-0.035c-0.022-0.006-0.042-0.009-0.064-0.014c-0.047-0.012-0.094-0.021-0.142-0.033
			c-0.038-0.009-0.077-0.017-0.116-0.026c-0.032-0.007-0.063-0.013-0.094-0.021c-0.16-0.036-0.328-0.074-0.504-0.113
			c-0.486-0.109-1.048-0.234-1.604-0.361l2.079-2.08l-0.489-0.487l-2.383,2.383c-0.436-0.103-0.843-0.202-1.177-0.288l2.591-2.591
			l-0.487-0.488l-2.858,2.856c-0.019-0.007-0.037-0.015-0.051-0.021c-0.168-0.084-0.488-0.268-0.887-0.504l3.375-3.374
			c1.111,0.054,2.352,0.113,3.645,0.174C114.974,10.033,116.048,10.923,116.465,11.551z M104.351,8.705l-1.194,1.193
			C103.324,9.471,103.668,8.913,104.351,8.705z M105.389,8.642c0.234,0.013,0.624,0.033,1.14,0.06l-2.24,2.24
			c-0.263-0.163-0.513-0.319-0.738-0.461L105.389,8.642z M107.459,8.749c0.422,0.021,0.89,0.044,1.395,0.069l-3.054,3.054
			c-0.292-0.177-0.602-0.366-0.909-0.556L107.459,8.749z M128.914,7.415c-0.22,0.672-1.206,1.043-2.775,1.043
			c-0.245,0-0.535-0.003-0.863-0.008V7.695h-0.695v0.741c-0.318-0.007-0.663-0.016-1.036-0.027V7.306h-0.691v1.081
			c-0.326-0.01-0.673-0.022-1.035-0.035V7.305h-0.691v1.022c-0.331-0.012-0.677-0.026-1.036-0.039V7.393h-0.69v0.869
			c-0.335-0.014-0.679-0.027-1.036-0.042v-0.74h-0.69v0.712c-0.336-0.014-0.682-0.03-1.035-0.044V6.875h-0.69v1.24
			c-0.339-0.015-0.684-0.03-1.036-0.047V6.875h-0.69v1.162c-0.078-0.004-0.156-0.008-0.234-0.011
			c-0.08-0.004-0.161-0.008-0.239-0.011l0,0l-0.14-0.007c-0.142-0.006-0.283-0.012-0.425-0.019V6.444h-0.689v1.513
			c-0.351-0.017-0.696-0.034-1.036-0.049V5.926h-0.689v1.949c-0.117-0.005-0.234-0.011-0.349-0.017c-0.004,0-0.006,0-0.011-0.001
			c-0.096-0.003-0.193-0.009-0.286-0.014c-0.052-0.003-0.104-0.004-0.157-0.008c-0.056-0.002-0.111-0.005-0.167-0.008
			c-0.022-0.001-0.044-0.002-0.066-0.003V5.408h-0.69v2.383c-0.035-0.002-0.069-0.003-0.104-0.005
			c-0.071-0.004-0.142-0.007-0.211-0.011c-0.056-0.002-0.11-0.006-0.163-0.009c-0.041-0.002-0.079-0.004-0.117-0.005
			c-0.071-0.004-0.142-0.008-0.21-0.011c-0.042-0.002-0.086-0.004-0.127-0.007c-0.035-0.002-0.068-0.004-0.103-0.005V5.234h-0.69
			v2.47c-0.393-0.02-0.741-0.039-1.036-0.053v-2.07h-0.69v2.035c-0.249-0.012-0.387-0.02-0.392-0.02
			c-0.096-0.007-0.189-0.011-0.28-0.011c-0.126,0-0.247,0.007-0.364,0.021V6.27h-0.691v1.503c-0.426,0.163-0.766,0.419-1.036,0.713
			V6.96h-0.689v2.674c-0.121,0.326-0.173,0.61-0.173,0.779v0.276l0.23,0.155c0.743,0.494,3.89,2.452,4.63,2.822
			c0.438,0.22,2.113,0.602,4.619,1.163c1.196,0.267,2.325,0.52,2.611,0.616c0.014,0.004,0.03,0.012,0.046,0.019
			c0.013,0.005,0.024,0.009,0.038,0.016c0.35,0.174,0.982,0.772,1.185,1.444c0.104,0.354,0.065,0.646-0.123,0.892
			c-0.058,0.048-0.159,0.095-0.29,0.142v-0.371h-0.69v0.549c-0.293,0.058-0.638,0.115-1.036,0.168v-0.934H112.5v1.021
			c-0.324,0.036-0.669,0.071-1.037,0.106v-0.78h-0.69v0.84c-0.228,0.019-0.46,0.039-0.702,0.055l-0.333,0.023V17.46h-0.691v1.223
			c-0.343,0.021-0.688,0.042-1.036,0.061v-1.023h-0.689v1.059c-0.349,0.016-0.695,0.034-1.036,0.047v-1.539h-0.69v1.566
			c-0.354,0.014-0.702,0.027-1.036,0.038v-1.775h-0.689v1.798c-0.368,0.01-0.713,0.02-1.036,0.027v-1.911h-0.69v1.928
			c-0.416,0.009-0.766,0.015-1.036,0.021v-2.293h-0.691v2.299c-0.075-0.001-0.194-0.003-0.345-0.006c-0.004,0-0.009,0-0.012-0.002
			c-0.022,0-0.045,0-0.069,0c-0.173-0.004-0.379-0.007-0.608-0.011V16.34h-0.691v2.617l-0.337-0.006l0.001,0.004
			c-0.231-0.002-0.467-0.004-0.7-0.005v-2.955h-0.69v2.958c-0.43,0.003-0.776,0.012-1.036,0.024v-3.5h-0.69v3.579
			c-0.3,0.055-0.652,0.132-1.036,0.218v-3.795h-0.69v3.946c-0.336,0.073-0.686,0.143-1.037,0.204v-4.934h-0.69v5.033
			c-0.328,0.04-0.652,0.065-0.954,0.065c-0.048,0-0.093-0.001-0.14-0.004v-6.052h-0.691v5.973c-0.021-0.004-0.046-0.01-0.069-0.015
			c-0.349-0.09-0.668-0.18-0.967-0.264v-6.291H88.28v6.084c-0.415-0.127-0.761-0.244-1.036-0.339V12.37h-0.69v6.26
			c-0.055-0.021-0.086-0.033-0.087-0.034l-0.074-0.032l-0.875-0.079v-6.116h-0.69v6.055l-1.036-0.092v-5.366h-0.689v5.303
			l-1.036-0.091v-4.106h-0.691v4.044l-1.035-0.093v-3.077h-0.69v3.014l-1.037-0.091v-2.047h-0.69v1.024
			c-0.921-3.256-0.127-7.975,1.438-9.904c0.039-0.047,0.079-0.095,0.12-0.144c1.582,0.205,3.614,0.453,5.077,0.572l0.016,0.044
			l0.451-0.01c0.658,0.045,1.076,0.049,1.32,0.01c0.486-0.074,1.648-0.729,4.02-2.087c2.988-1.709,7.503-4.292,8.911-4.292
			c2.69,0,27.94,4.628,29.355,5.105C128.784,6.298,129.087,6.89,128.914,7.415z"/>
	</g>
</g>
<g id="close">
	<path fill="#0F0F0F" d="M140,20.013l8.23-8.231L140,3.604l2.795-2.796l8.231,8.179l8.179-8.179L162,3.604l-8.178,8.178L162,20.013
		l-2.795,2.795l-8.179-8.23l-8.231,8.23L140,20.013z M150.974,12.558l8.231,8.18l0.776-0.777l-8.179-8.179l8.179-8.23l-0.776-0.777
		l-8.231,8.179l-8.178-8.179l-0.776,0.777l8.179,8.178l-8.231,8.23l0.828,0.777L150.974,12.558z"/>
</g>
</svg>
